<?xml version="1.0" encoding="UTF-8"?>
<svg enable-background="new 0 0 1510.3 419.7" version="1.1" viewBox="0 0 1510.3 419.7" xml:space="preserve" xmlns="http://www.w3.org/2000/svg">
<title>Evertz Microsystems logo</title>
<desc>Canadian electronics corporation</desc>
<style type="text/css">
	.st0{fill:#FFF200;}
	.st1{fill-rule:evenodd;clip-rule:evenodd;fill:#FFF200;}
</style>
	<polygon points="1377.7 402.6 22.6 402.6 132.6 17.1 1487.6 17.1"/>
	<path class="st0" d="m1487.6 0h-1368l-119.6 419.7h1390.6l119.7-419.7h-22.7zm-22.6 34.2c-10.7 37.5-93.9 329.5-100.2 351.3h-1319.5c10.7-37.5 94-329.5 100.2-351.3h1319.5z"/>
	<path class="st1" d="m386.8 327.5h90.5l124-182.7h-81.5l-71.6 123.6-7.9-123.8h-69.9l16.4 182.9z"/>
	<path class="st1" d="m1011.6 328.6c-19.6-2.1-33.1-17.9-33.1-37 0-3.1 0-5.2 0.6-8l46.4-171.7h-747.9l5.5-16.8h747.9l6.6-25h80.7l-8.1 25h150.9l-5.5 16.8h-149.8l-41.8 146.4s-2.6 7.6 0.5 11.5c3.1 4 9.7 5.7 12.4 6l17.8 1.1-14.3 51.7h-68.8z"/>
	<polygon class="st1" points="1118.4 275.8 1101.5 328.6 1303.6 328.6 1316.8 282 1204.3 282 1344.6 184.8 1357.8 138.3 1161.7 138.3 1149.4 183.8 1242.3 183.8"/>
	<path class="st1" d="m844.6 144.7h77.1l-6.6 25.8c21.1-20.6 51.2-32.3 79.1-32.3 0 0 2.2 0 2.2 0.5l-15.6 55c-2.2-1.5-6.8-1.5-10.1-1.5-4.8 0-26.5 2.4-42.7 11.5-17.7 10-30.1 27.3-34.2 37.6l-25.7 87.1h-76l52.5-183.7z"/>
	<path class="st1" d="m185.2 248.2c-0.5 2.7-0.8 5.2-0.8 7.7 0 49.4 73.9 52.7 96.7 16.1h67c-12.5 26.9-35.2 47.4-64.6 57.1-57 15.1-158.4 9.7-160.6-65.8 2.2-45.1 27.2-86.1 68.3-108.7 58.2-36.6 172.8-24.8 172.8 59.2 0 11.8-3.3 23.6-7.9 34.3h-170.7l-0.2 0.1zm10.7-32.3h109.2c0-22.5-19.4-40.9-43.3-42-30.8 0-55.8 17.3-65.9 42z"/>
	<path class="st1" d="m630.1 248.2c-0.5 2.7-0.8 5.2-0.8 7.7 0 49.4 73.9 52.7 96.7 16.1h67c-12.5 26.9-35.2 47.4-64.6 57.1-57.1 15.1-158.4 9.7-160.6-65.8 2.2-45.1 27.2-86.1 68.3-108.7 58.2-36.6 172.9-24.8 172.9 59.2 0 11.8-3.3 23.6-7.9 34.3h-170.8l-0.2 0.1zm10.7-32.3h109.2c0-22.5-19.4-40.9-43.3-42-30.8 0-55.7 17.3-65.9 42z"/>
	<path class="st0" d="m1327.9 330.8c-7 0-12.7-5.3-12.7-11.8s5.7-11.8 12.7-11.8 12.7 5.3 12.7 11.8-5.7 11.7-12.7 11.8zm0-22.2c-6.2 0-11.2 4.7-11.2 10.5 0 5.7 5 10.4 11.2 10.4s11.2-4.6 11.2-10.4c0-5.9-5-10.5-11.2-10.5zm-4.8 3.5h6.3c2.2 0 4.3 0.4 4.5 3.3 0.1 1.7-0.5 2.3-1.8 3.2 1.4 0.9 1.5 1.1 1.7 3.3 0.1 1.7-0.1 2 0.7 3.1h-2.1l-0.3-1.6c-0.3-1.5 0.5-3.9-2.4-3.9h-4.6v5.6h-1.8v-13zm1.9 1.5v4.5h4.5c1.2 0 2.4-0.3 2.6-2 0.3-2.2-1.5-2.5-2.6-2.5h-4.5z"/>
</svg>
